<svg width="16" height="16" viewBox="0 0 16 16" fill="none" xmlns="http://www.w3.org/2000/svg">
<path d="M1.3335 7.99992C1.3335 7.99992 3.75774 3.33325 8.00016 3.33325C12.2426 3.33325 14.6668 7.99992 14.6668 7.99992C14.6668 7.99992 12.2426 12.6666 8.00016 12.6666C3.75774 12.6666 1.3335 7.99992 1.3335 7.99992Z" fill="#181822" fill-opacity="0.3"/>
<path d="M8.00016 9.99992C9.10473 9.99992 10.0002 9.10449 10.0002 7.99992C10.0002 6.89535 9.10473 5.99992 8.00016 5.99992C6.89559 5.99992 6.00016 6.89535 6.00016 7.99992C6.00016 9.10449 6.89559 9.99992 8.00016 9.99992Z" fill="#181822" fill-opacity="0.3"/>
<path d="M1.3335 7.99992C1.3335 7.99992 3.75774 3.33325 8.00016 3.33325C12.2426 3.33325 14.6668 7.99992 14.6668 7.99992C14.6668 7.99992 12.2426 12.6666 8.00016 12.6666C3.75774 12.6666 1.3335 7.99992 1.3335 7.99992Z" stroke="#181822" stroke-width="1.5" stroke-linecap="round" stroke-linejoin="round"/>
<path d="M8.00016 9.99992C9.10473 9.99992 10.0002 9.10449 10.0002 7.99992C10.0002 6.89535 9.10473 5.99992 8.00016 5.99992C6.89559 5.99992 6.00016 6.89535 6.00016 7.99992C6.00016 9.10449 6.89559 9.99992 8.00016 9.99992Z" stroke="#181822" stroke-width="1.5" stroke-linecap="round" stroke-linejoin="round"/>
</svg>
