<svg width="23" height="29" viewBox="0 0 23 29" fill="none" xmlns="http://www.w3.org/2000/svg">
<g clip-path="url(#clip0_258_263)">
<path d="M12.2973 28.9998H10.7061C10.6446 28.9793 10.5815 28.9639 10.5175 28.9536C9.15963 28.8375 7.83324 28.4813 6.60017 27.9016C1.0932 25.3504 -1.4792 18.7395 0.862854 13.1436C1.75088 11.0244 3.164 9.33673 5.03552 8.00245C7.46016 6.27462 8.84371 3.91559 9.16801 0.950356C9.26424 0.0777373 9.84085 -0.240884 10.6175 0.182181C12.5223 1.22054 14.0309 2.67138 15.1084 4.55133C16.2896 6.6114 16.8117 8.83117 16.6192 11.2114C16.6079 11.3544 16.6011 11.4975 16.5874 11.72C17.1785 11.0954 17.684 10.3953 18.0907 9.63795C18.4771 8.92275 19.0856 8.82966 19.6447 9.4109C22.3421 12.2066 23.4257 15.5329 22.8445 19.37C22.1361 24.0471 18.3741 27.9054 13.715 28.7818C13.2475 28.8681 12.7716 28.9271 12.2973 28.9998Z" fill="#3F74FF" fill-opacity="0.2"/>
</g>
<g clip-path="url(#clip1_258_263)">
<path d="M12.0892 28.9999H10.9131C10.8677 28.9851 10.821 28.9739 10.7737 28.9664C9.77006 28.8824 8.78969 28.6244 7.87829 28.2047C3.80792 26.3572 1.90658 21.57 3.63767 17.5178C4.29403 15.9833 5.33851 14.7611 6.72181 13.7949C8.51393 12.5437 9.53656 10.8355 9.77626 8.68822C9.84738 8.05633 10.2736 7.8256 10.8476 8.13196C12.2556 8.88388 13.3706 9.93448 14.167 11.2958C15.0401 12.7876 15.4259 14.395 15.2837 16.1186C15.2753 16.2222 15.2702 16.3258 15.2602 16.4869C15.697 16.0346 16.0707 15.5277 16.3713 14.9792C16.6569 14.4613 17.1066 14.3939 17.5199 14.8148C19.5137 16.8393 20.3145 19.248 19.885 22.0266C19.3613 25.4135 16.5807 28.2074 13.1371 28.842C12.7915 28.9045 12.4398 28.9473 12.0892 28.9999Z" fill="#3F74FF" fill-opacity="0.4"/>
</g>
<g clip-path="url(#clip2_258_263)">
<path d="M11.8814 29H11.1204C11.091 28.9901 11.0608 28.9826 11.0302 28.9777C10.3807 28.9216 9.74638 28.7497 9.15666 28.4698C6.52289 27.2382 5.29261 24.0467 6.41272 21.3452C6.83743 20.3222 7.51327 19.5074 8.40834 18.8633C9.56795 18.0292 10.2297 16.8904 10.3848 15.4589C10.4308 15.0376 10.7065 14.8838 11.078 15.088C11.989 15.5893 12.7105 16.2897 13.2258 17.1973C13.7907 18.1918 14.0404 19.2634 13.9484 20.4125C13.943 20.4815 13.9397 20.5506 13.9332 20.658C14.2158 20.3565 14.4576 20.0185 14.6521 19.6529C14.8369 19.3076 15.1279 19.2627 15.3954 19.5433C16.6854 20.8929 17.2036 22.4987 16.9257 24.3511C16.5869 26.609 14.7877 28.4716 12.5594 28.8947C12.3358 28.9364 12.1082 28.9649 11.8814 29Z" fill="#3F74FF"/>
</g>
<defs>
<clipPath id="clip0_258_263">
<rect width="23" height="29" fill="white"/>
</clipPath>
<clipPath id="clip1_258_263">
<rect width="17" height="21" fill="white" transform="translate(3 8)"/>
</clipPath>
<clipPath id="clip2_258_263">
<rect width="11" height="14" fill="white" transform="translate(6 15)"/>
</clipPath>
</defs>
</svg>
